<mxfile host="Electron" modified="2024-04-30T13:23:07.320Z" agent="Mozilla/5.0 (Windows NT 10.0; Win64; x64) AppleWebKit/537.36 (KHTML, like Gecko) draw.io/24.2.5 Chrome/120.0.6099.109 Electron/28.1.0 Safari/537.36" etag="E2Ecnwhx8cT1mzjglR8P" version="24.2.5" type="device">
  <diagram id="C5RBs43oDa-KdzZeNtuy" name="Page-1">
    <mxGraphModel dx="3088" dy="2013" grid="1" gridSize="10" guides="1" tooltips="1" connect="1" arrows="1" fold="1" page="1" pageScale="1" pageWidth="827" pageHeight="1169" math="0" shadow="0">
      <root>
        <mxCell id="WIyWlLk6GJQsqaUBKTNV-0" />
        <mxCell id="WIyWlLk6GJQsqaUBKTNV-1" parent="WIyWlLk6GJQsqaUBKTNV-0" />
        <mxCell id="gxxZRGfVhdAJ79STQYsQ-71" style="edgeStyle=orthogonalEdgeStyle;rounded=0;orthogonalLoop=1;jettySize=auto;html=1;exitX=0;exitY=0.5;exitDx=0;exitDy=0;" parent="WIyWlLk6GJQsqaUBKTNV-1" source="8ujiRsxlkH-QBAE6qNTh-2" target="gxxZRGfVhdAJ79STQYsQ-70" edge="1">
          <mxGeometry relative="1" as="geometry" />
        </mxCell>
        <mxCell id="ew6DKZ_GkbG6XoCvcQPM-14" style="edgeStyle=orthogonalEdgeStyle;rounded=0;orthogonalLoop=1;jettySize=auto;html=1;" parent="WIyWlLk6GJQsqaUBKTNV-1" source="8ujiRsxlkH-QBAE6qNTh-2" target="gxxZRGfVhdAJ79STQYsQ-67" edge="1">
          <mxGeometry relative="1" as="geometry" />
        </mxCell>
        <mxCell id="8ujiRsxlkH-QBAE6qNTh-2" value="Asn1DecodedDataRouter.java" style="rounded=0;whiteSpace=wrap;html=1;fillColor=#dae8fc;strokeColor=#6c8ebf;" parent="WIyWlLk6GJQsqaUBKTNV-1" vertex="1">
          <mxGeometry x="-155" y="-287.25" width="170" height="60" as="geometry" />
        </mxCell>
        <mxCell id="gxxZRGfVhdAJ79STQYsQ-20" style="edgeStyle=orthogonalEdgeStyle;rounded=0;orthogonalLoop=1;jettySize=auto;html=1;" parent="WIyWlLk6GJQsqaUBKTNV-1" source="gxxZRGfVhdAJ79STQYsQ-5" target="gxxZRGfVhdAJ79STQYsQ-19" edge="1">
          <mxGeometry relative="1" as="geometry">
            <mxPoint x="82.5" y="-460" as="targetPoint" />
          </mxGeometry>
        </mxCell>
        <mxCell id="gxxZRGfVhdAJ79STQYsQ-5" value="ACM (ADM)" style="shape=process;whiteSpace=wrap;html=1;backgroundOutline=1;fillColor=#d5e8d4;strokeColor=#82b366;" parent="WIyWlLk6GJQsqaUBKTNV-1" vertex="1">
          <mxGeometry x="-310" y="-465" width="120" height="60" as="geometry" />
        </mxCell>
        <mxCell id="_VHhroGQ1N4wH_tI7Nl9-2" style="edgeStyle=orthogonalEdgeStyle;rounded=0;orthogonalLoop=1;jettySize=auto;html=1;" parent="WIyWlLk6GJQsqaUBKTNV-1" source="gxxZRGfVhdAJ79STQYsQ-9" target="gxxZRGfVhdAJ79STQYsQ-62" edge="1">
          <mxGeometry relative="1" as="geometry" />
        </mxCell>
        <mxCell id="gxxZRGfVhdAJ79STQYsQ-9" value="AsnCodecMessageServiceController.java" style="rounded=0;whiteSpace=wrap;html=1;fillColor=#dae8fc;strokeColor=#6c8ebf;" parent="WIyWlLk6GJQsqaUBKTNV-1" vertex="1">
          <mxGeometry x="-550" y="-690" width="230" height="60" as="geometry" />
        </mxCell>
        <mxCell id="gxxZRGfVhdAJ79STQYsQ-18" style="edgeStyle=orthogonalEdgeStyle;rounded=0;orthogonalLoop=1;jettySize=auto;html=1;entryX=0;entryY=0.5;entryDx=0;entryDy=0;" parent="WIyWlLk6GJQsqaUBKTNV-1" source="gxxZRGfVhdAJ79STQYsQ-13" target="gxxZRGfVhdAJ79STQYsQ-5" edge="1">
          <mxGeometry relative="1" as="geometry" />
        </mxCell>
        <mxCell id="gxxZRGfVhdAJ79STQYsQ-13" value="Asn1DecoderInput" style="ellipse;whiteSpace=wrap;html=1;fillColor=#fff2cc;strokeColor=#d6b656;" parent="WIyWlLk6GJQsqaUBKTNV-1" vertex="1">
          <mxGeometry x="-495" y="-475" width="120" height="80" as="geometry" />
        </mxCell>
        <mxCell id="ew6DKZ_GkbG6XoCvcQPM-0" style="edgeStyle=orthogonalEdgeStyle;rounded=0;orthogonalLoop=1;jettySize=auto;html=1;exitX=0.5;exitY=1;exitDx=0;exitDy=0;" parent="WIyWlLk6GJQsqaUBKTNV-1" source="gxxZRGfVhdAJ79STQYsQ-19" target="8ujiRsxlkH-QBAE6qNTh-2" edge="1">
          <mxGeometry relative="1" as="geometry" />
        </mxCell>
        <mxCell id="gxxZRGfVhdAJ79STQYsQ-19" value="Asn1DecoderOutput" style="ellipse;whiteSpace=wrap;html=1;fillColor=#fff2cc;strokeColor=#d6b656;" parent="WIyWlLk6GJQsqaUBKTNV-1" vertex="1">
          <mxGeometry x="-130" y="-475" width="120" height="80" as="geometry" />
        </mxCell>
        <mxCell id="YHMkREfT_XDUsx9dS2hV-2" style="rounded=0;orthogonalLoop=1;jettySize=auto;html=1;" parent="WIyWlLk6GJQsqaUBKTNV-1" source="gxxZRGfVhdAJ79STQYsQ-49" target="DCc7k3AozIeldM_8hQ48-4" edge="1">
          <mxGeometry relative="1" as="geometry" />
        </mxCell>
        <mxCell id="gxxZRGfVhdAJ79STQYsQ-49" value="FileUploadController.java" style="rounded=0;whiteSpace=wrap;html=1;fillColor=#dae8fc;strokeColor=#6c8ebf;" parent="WIyWlLk6GJQsqaUBKTNV-1" vertex="1">
          <mxGeometry x="-350" y="-1070" width="140" height="60" as="geometry" />
        </mxCell>
        <mxCell id="0j6iyoVwDkoRMPwD6O5d-1" style="edgeStyle=orthogonalEdgeStyle;rounded=0;orthogonalLoop=1;jettySize=auto;html=1;exitX=1;exitY=0.5;exitDx=0;exitDy=0;entryX=0.392;entryY=0.012;entryDx=0;entryDy=0;entryPerimeter=0;" parent="WIyWlLk6GJQsqaUBKTNV-1" source="gxxZRGfVhdAJ79STQYsQ-58" target="gxxZRGfVhdAJ79STQYsQ-60" edge="1">
          <mxGeometry relative="1" as="geometry" />
        </mxCell>
        <mxCell id="gxxZRGfVhdAJ79STQYsQ-58" value="Receiver Classes" style="rounded=0;whiteSpace=wrap;html=1;fillColor=#f8cecc;strokeColor=#b85450;" parent="WIyWlLk6GJQsqaUBKTNV-1" vertex="1">
          <mxGeometry x="-630" y="-930" width="120" height="60" as="geometry" />
        </mxCell>
        <mxCell id="0j6iyoVwDkoRMPwD6O5d-3" style="edgeStyle=orthogonalEdgeStyle;rounded=0;orthogonalLoop=1;jettySize=auto;html=1;exitX=0.5;exitY=1;exitDx=0;exitDy=0;entryX=0.5;entryY=0;entryDx=0;entryDy=0;" parent="WIyWlLk6GJQsqaUBKTNV-1" source="gxxZRGfVhdAJ79STQYsQ-60" target="gxxZRGfVhdAJ79STQYsQ-9" edge="1">
          <mxGeometry relative="1" as="geometry" />
        </mxCell>
        <mxCell id="gxxZRGfVhdAJ79STQYsQ-60" value="Raw Encoded Messages" style="ellipse;whiteSpace=wrap;html=1;fillColor=#f8cecc;strokeColor=#b85450;" parent="WIyWlLk6GJQsqaUBKTNV-1" vertex="1">
          <mxGeometry x="-520" y="-820" width="170" height="80" as="geometry" />
        </mxCell>
        <mxCell id="gxxZRGfVhdAJ79STQYsQ-65" style="rounded=0;orthogonalLoop=1;jettySize=auto;html=1;" parent="WIyWlLk6GJQsqaUBKTNV-1" source="gxxZRGfVhdAJ79STQYsQ-62" target="gxxZRGfVhdAJ79STQYsQ-13" edge="1">
          <mxGeometry relative="1" as="geometry" />
        </mxCell>
        <mxCell id="gxxZRGfVhdAJ79STQYsQ-62" value="Asn1Decode Classes" style="rounded=0;whiteSpace=wrap;html=1;fillColor=#f8cecc;strokeColor=#b85450;" parent="WIyWlLk6GJQsqaUBKTNV-1" vertex="1">
          <mxGeometry x="-515" y="-584.5" width="160" height="60" as="geometry" />
        </mxCell>
        <mxCell id="gxxZRGfVhdAJ79STQYsQ-67" value="Pojo Messages" style="ellipse;whiteSpace=wrap;html=1;fillColor=#f8cecc;strokeColor=#b85450;" parent="WIyWlLk6GJQsqaUBKTNV-1" vertex="1">
          <mxGeometry x="-130" y="-169.5" width="120" height="80" as="geometry" />
        </mxCell>
        <mxCell id="ew6DKZ_GkbG6XoCvcQPM-18" style="rounded=0;orthogonalLoop=1;jettySize=auto;html=1;" parent="WIyWlLk6GJQsqaUBKTNV-1" source="gxxZRGfVhdAJ79STQYsQ-70" target="gxxZRGfVhdAJ79STQYsQ-85" edge="1">
          <mxGeometry relative="1" as="geometry" />
        </mxCell>
        <mxCell id="rKaXj94FR3fHoc4JMxDR-1" style="rounded=0;orthogonalLoop=1;jettySize=auto;html=1;" parent="WIyWlLk6GJQsqaUBKTNV-1" source="gxxZRGfVhdAJ79STQYsQ-70" target="rKaXj94FR3fHoc4JMxDR-0" edge="1">
          <mxGeometry relative="1" as="geometry" />
        </mxCell>
        <mxCell id="gxxZRGfVhdAJ79STQYsQ-70" value="Json Messages" style="ellipse;whiteSpace=wrap;html=1;fillColor=#f8cecc;strokeColor=#b85450;" parent="WIyWlLk6GJQsqaUBKTNV-1" vertex="1">
          <mxGeometry x="-445" y="-297.25" width="120" height="80" as="geometry" />
        </mxCell>
        <mxCell id="gxxZRGfVhdAJ79STQYsQ-113" style="edgeStyle=orthogonalEdgeStyle;rounded=0;orthogonalLoop=1;jettySize=auto;html=1;entryX=0.5;entryY=0;entryDx=0;entryDy=0;" parent="WIyWlLk6GJQsqaUBKTNV-1" source="gxxZRGfVhdAJ79STQYsQ-74" target="gxxZRGfVhdAJ79STQYsQ-98" edge="1">
          <mxGeometry relative="1" as="geometry" />
        </mxCell>
        <mxCell id="jXXAGItoZEFWX7bIlFFn-43" style="edgeStyle=orthogonalEdgeStyle;rounded=0;orthogonalLoop=1;jettySize=auto;html=1;entryX=1;entryY=0.5;entryDx=0;entryDy=0;exitX=0;exitY=0.5;exitDx=0;exitDy=0;" parent="WIyWlLk6GJQsqaUBKTNV-1" source="gxxZRGfVhdAJ79STQYsQ-74" target="jXXAGItoZEFWX7bIlFFn-42" edge="1">
          <mxGeometry relative="1" as="geometry" />
        </mxCell>
        <mxCell id="ew6DKZ_GkbG6XoCvcQPM-13" style="rounded=0;orthogonalLoop=1;jettySize=auto;html=1;" parent="WIyWlLk6GJQsqaUBKTNV-1" source="gxxZRGfVhdAJ79STQYsQ-74" target="gxxZRGfVhdAJ79STQYsQ-70" edge="1">
          <mxGeometry relative="1" as="geometry">
            <Array as="points">
              <mxPoint x="-610" y="-490" />
            </Array>
          </mxGeometry>
        </mxCell>
        <mxCell id="gxxZRGfVhdAJ79STQYsQ-74" value="TimDepositorController.java" style="rounded=0;whiteSpace=wrap;html=1;fillColor=#dae8fc;strokeColor=#6c8ebf;" parent="WIyWlLk6GJQsqaUBKTNV-1" vertex="1">
          <mxGeometry x="-852.5" y="-750" width="160" height="60" as="geometry" />
        </mxCell>
        <mxCell id="ew6DKZ_GkbG6XoCvcQPM-16" style="edgeStyle=orthogonalEdgeStyle;rounded=0;orthogonalLoop=1;jettySize=auto;html=1;" parent="WIyWlLk6GJQsqaUBKTNV-1" source="gxxZRGfVhdAJ79STQYsQ-85" target="gxxZRGfVhdAJ79STQYsQ-86" edge="1">
          <mxGeometry relative="1" as="geometry" />
        </mxCell>
        <mxCell id="gxxZRGfVhdAJ79STQYsQ-85" value="PPM" style="shape=process;whiteSpace=wrap;html=1;backgroundOutline=1;fillColor=#d5e8d4;strokeColor=#82b366;" parent="WIyWlLk6GJQsqaUBKTNV-1" vertex="1">
          <mxGeometry x="-370" y="-9.5" width="120" height="60" as="geometry" />
        </mxCell>
        <mxCell id="gxxZRGfVhdAJ79STQYsQ-86" value="Filtered Json Messages" style="ellipse;whiteSpace=wrap;html=1;fillColor=#f8cecc;strokeColor=#b85450;" parent="WIyWlLk6GJQsqaUBKTNV-1" vertex="1">
          <mxGeometry x="-175" y="-19.5" width="155" height="80" as="geometry" />
        </mxCell>
        <mxCell id="JBgjJIfmi4-gixA-3QBI-31" style="edgeStyle=orthogonalEdgeStyle;rounded=0;orthogonalLoop=1;jettySize=auto;html=1;entryX=0.5;entryY=0;entryDx=0;entryDy=0;" parent="WIyWlLk6GJQsqaUBKTNV-1" source="gxxZRGfVhdAJ79STQYsQ-91" target="JBgjJIfmi4-gixA-3QBI-29" edge="1">
          <mxGeometry relative="1" as="geometry" />
        </mxCell>
        <mxCell id="gxxZRGfVhdAJ79STQYsQ-91" value="Asn1CommandManager.java" style="rounded=0;whiteSpace=wrap;html=1;fillColor=#dae8fc;strokeColor=#6c8ebf;" parent="WIyWlLk6GJQsqaUBKTNV-1" vertex="1">
          <mxGeometry x="-862.5" y="-230" width="180" height="60" as="geometry" />
        </mxCell>
        <mxCell id="ew6DKZ_GkbG6XoCvcQPM-8" style="edgeStyle=orthogonalEdgeStyle;rounded=0;orthogonalLoop=1;jettySize=auto;html=1;" parent="WIyWlLk6GJQsqaUBKTNV-1" source="gxxZRGfVhdAJ79STQYsQ-92" target="gxxZRGfVhdAJ79STQYsQ-119" edge="1">
          <mxGeometry relative="1" as="geometry" />
        </mxCell>
        <mxCell id="gxxZRGfVhdAJ79STQYsQ-92" value="SDWDepositorInput" style="ellipse;whiteSpace=wrap;html=1;fillColor=#fff2cc;strokeColor=#d6b656;" parent="WIyWlLk6GJQsqaUBKTNV-1" vertex="1">
          <mxGeometry x="-1180" y="-95" width="120" height="80" as="geometry" />
        </mxCell>
        <mxCell id="JBgjJIfmi4-gixA-3QBI-21" style="edgeStyle=orthogonalEdgeStyle;rounded=0;orthogonalLoop=1;jettySize=auto;html=1;" parent="WIyWlLk6GJQsqaUBKTNV-1" source="gxxZRGfVhdAJ79STQYsQ-94" target="gxxZRGfVhdAJ79STQYsQ-91" edge="1">
          <mxGeometry relative="1" as="geometry" />
        </mxCell>
        <mxCell id="gxxZRGfVhdAJ79STQYsQ-94" value="Asn1EncodedDataRouter.java" style="rounded=0;whiteSpace=wrap;html=1;fillColor=#dae8fc;strokeColor=#6c8ebf;" parent="WIyWlLk6GJQsqaUBKTNV-1" vertex="1">
          <mxGeometry x="-857.5" y="-320" width="170" height="60" as="geometry" />
        </mxCell>
        <mxCell id="gxxZRGfVhdAJ79STQYsQ-114" style="edgeStyle=orthogonalEdgeStyle;rounded=0;orthogonalLoop=1;jettySize=auto;html=1;" parent="WIyWlLk6GJQsqaUBKTNV-1" source="gxxZRGfVhdAJ79STQYsQ-98" target="gxxZRGfVhdAJ79STQYsQ-100" edge="1">
          <mxGeometry relative="1" as="geometry" />
        </mxCell>
        <mxCell id="gxxZRGfVhdAJ79STQYsQ-98" value="Asn1EncoderInput" style="ellipse;whiteSpace=wrap;html=1;fillColor=#fff2cc;strokeColor=#d6b656;" parent="WIyWlLk6GJQsqaUBKTNV-1" vertex="1">
          <mxGeometry x="-832.5" y="-644" width="120" height="80" as="geometry" />
        </mxCell>
        <mxCell id="gxxZRGfVhdAJ79STQYsQ-115" style="edgeStyle=orthogonalEdgeStyle;rounded=0;orthogonalLoop=1;jettySize=auto;html=1;" parent="WIyWlLk6GJQsqaUBKTNV-1" source="gxxZRGfVhdAJ79STQYsQ-100" target="gxxZRGfVhdAJ79STQYsQ-102" edge="1">
          <mxGeometry relative="1" as="geometry" />
        </mxCell>
        <mxCell id="gxxZRGfVhdAJ79STQYsQ-100" value="ACM (AEM)" style="shape=process;whiteSpace=wrap;html=1;backgroundOutline=1;fillColor=#d5e8d4;strokeColor=#82b366;" parent="WIyWlLk6GJQsqaUBKTNV-1" vertex="1">
          <mxGeometry x="-832.5" y="-530" width="120" height="60" as="geometry" />
        </mxCell>
        <mxCell id="3-sL9YEC-HAnhnW_kQz6-1" style="edgeStyle=orthogonalEdgeStyle;rounded=0;orthogonalLoop=1;jettySize=auto;html=1;exitX=0.5;exitY=1;exitDx=0;exitDy=0;entryX=0.5;entryY=0;entryDx=0;entryDy=0;" parent="WIyWlLk6GJQsqaUBKTNV-1" source="gxxZRGfVhdAJ79STQYsQ-102" target="gxxZRGfVhdAJ79STQYsQ-94" edge="1">
          <mxGeometry relative="1" as="geometry" />
        </mxCell>
        <mxCell id="gxxZRGfVhdAJ79STQYsQ-102" value="Asn1EncoderOutput" style="ellipse;whiteSpace=wrap;html=1;fillColor=#fff2cc;strokeColor=#d6b656;" parent="WIyWlLk6GJQsqaUBKTNV-1" vertex="1">
          <mxGeometry x="-832.5" y="-430" width="120" height="80" as="geometry" />
        </mxCell>
        <mxCell id="i1uspTg1YRudTD4QgDsY-8" style="edgeStyle=orthogonalEdgeStyle;rounded=0;orthogonalLoop=1;jettySize=auto;html=1;exitX=0.5;exitY=1;exitDx=0;exitDy=0;" parent="WIyWlLk6GJQsqaUBKTNV-1" source="gxxZRGfVhdAJ79STQYsQ-119" target="i1uspTg1YRudTD4QgDsY-7" edge="1">
          <mxGeometry relative="1" as="geometry" />
        </mxCell>
        <mxCell id="gxxZRGfVhdAJ79STQYsQ-119" value="SDWD" style="shape=process;whiteSpace=wrap;html=1;backgroundOutline=1;fillColor=#d5e8d4;strokeColor=#82b366;" parent="WIyWlLk6GJQsqaUBKTNV-1" vertex="1">
          <mxGeometry x="-1180" y="25" width="120" height="60" as="geometry" />
        </mxCell>
        <mxCell id="jXXAGItoZEFWX7bIlFFn-42" value="Broadcast Messages" style="ellipse;whiteSpace=wrap;html=1;fillColor=#f8cecc;strokeColor=#b85450;" parent="WIyWlLk6GJQsqaUBKTNV-1" vertex="1">
          <mxGeometry x="-1090" y="-760" width="130" height="80" as="geometry" />
        </mxCell>
        <mxCell id="28XbaLqMs1Jvm8NnYAq6-0" value="message arrives &lt;br&gt;encoded with Asn1.c" style="text;html=1;align=center;verticalAlign=middle;resizable=0;points=[];autosize=1;strokeColor=none;fillColor=none;" parent="WIyWlLk6GJQsqaUBKTNV-1" vertex="1">
          <mxGeometry x="-350" y="-795" width="130" height="30" as="geometry" />
        </mxCell>
        <mxCell id="28XbaLqMs1Jvm8NnYAq6-1" value="message is decoded from Asn1.c" style="text;html=1;strokeColor=none;fillColor=none;align=center;verticalAlign=middle;whiteSpace=wrap;rounded=0;" parent="WIyWlLk6GJQsqaUBKTNV-1" vertex="1">
          <mxGeometry x="-20" y="-415" width="110" height="50" as="geometry" />
        </mxCell>
        <mxCell id="28XbaLqMs1Jvm8NnYAq6-5" value="message is filtered/redacted" style="text;html=1;strokeColor=none;fillColor=none;align=center;verticalAlign=middle;whiteSpace=wrap;rounded=0;" parent="WIyWlLk6GJQsqaUBKTNV-1" vertex="1">
          <mxGeometry x="-362.5" y="45.5" width="105" height="50" as="geometry" />
        </mxCell>
        <mxCell id="28XbaLqMs1Jvm8NnYAq6-6" value="message is encoded into Asn1.c" style="text;html=1;strokeColor=none;fillColor=none;align=center;verticalAlign=middle;whiteSpace=wrap;rounded=0;" parent="WIyWlLk6GJQsqaUBKTNV-1" vertex="1">
          <mxGeometry x="-942.5" y="-525" width="110" height="50" as="geometry" />
        </mxCell>
        <mxCell id="28XbaLqMs1Jvm8NnYAq6-7" value="messages are in POJO format" style="text;html=1;strokeColor=none;fillColor=none;align=center;verticalAlign=middle;whiteSpace=wrap;rounded=0;" parent="WIyWlLk6GJQsqaUBKTNV-1" vertex="1">
          <mxGeometry y="-170.25" width="105" height="50" as="geometry" />
        </mxCell>
        <mxCell id="28XbaLqMs1Jvm8NnYAq6-9" value="messages are in JSON format" style="text;html=1;strokeColor=none;fillColor=none;align=center;verticalAlign=middle;whiteSpace=wrap;rounded=0;" parent="WIyWlLk6GJQsqaUBKTNV-1" vertex="1">
          <mxGeometry x="-545" y="-257.25" width="105" height="50" as="geometry" />
        </mxCell>
        <mxCell id="28XbaLqMs1Jvm8NnYAq6-10" value="messages are in JSON format" style="text;html=1;strokeColor=none;fillColor=none;align=center;verticalAlign=middle;whiteSpace=wrap;rounded=0;" parent="WIyWlLk6GJQsqaUBKTNV-1" vertex="1">
          <mxGeometry x="-190" y="60.5" width="105" height="50" as="geometry" />
        </mxCell>
        <mxCell id="28XbaLqMs1Jvm8NnYAq6-13" value="messages are in JSON and POJO format" style="text;html=1;strokeColor=none;fillColor=none;align=center;verticalAlign=middle;whiteSpace=wrap;rounded=0;" parent="WIyWlLk6GJQsqaUBKTNV-1" vertex="1">
          <mxGeometry x="-1077.5" y="-680" width="105" height="50" as="geometry" />
        </mxCell>
        <mxCell id="ew6DKZ_GkbG6XoCvcQPM-5" value="RSUs" style="shape=trapezoid;perimeter=trapezoidPerimeter;whiteSpace=wrap;html=1;fixedSize=1;" parent="WIyWlLk6GJQsqaUBKTNV-1" vertex="1">
          <mxGeometry x="-1022.5" y="145" width="120" height="60" as="geometry" />
        </mxCell>
        <mxCell id="_VHhroGQ1N4wH_tI7Nl9-6" value="Key" style="swimlane;labelBackgroundColor=none;fontSize=18;" parent="WIyWlLk6GJQsqaUBKTNV-1" vertex="1">
          <mxGeometry x="-87.5" y="-920" width="460" height="400" as="geometry" />
        </mxCell>
        <mxCell id="_VHhroGQ1N4wH_tI7Nl9-9" value="&lt;font style=&quot;font-size: 24px&quot;&gt;Kafka Topic&lt;/font&gt;" style="ellipse;whiteSpace=wrap;html=1;fillColor=#fff2cc;strokeColor=#d6b656;labelBackgroundColor=none;" parent="_VHhroGQ1N4wH_tI7Nl9-6" vertex="1">
          <mxGeometry x="20" y="149.99975609756098" width="180" height="117.07317073170731" as="geometry" />
        </mxCell>
        <mxCell id="_VHhroGQ1N4wH_tI7Nl9-10" value="&lt;font style=&quot;font-size: 24px&quot;&gt;ODE Java Class&lt;/font&gt;" style="rounded=1;whiteSpace=wrap;html=1;fillColor=#dae8fc;strokeColor=#6c8ebf;labelBackgroundColor=none;" parent="_VHhroGQ1N4wH_tI7Nl9-6" vertex="1">
          <mxGeometry x="20.000000000000004" y="50" width="196.25" height="87.8" as="geometry" />
        </mxCell>
        <mxCell id="_VHhroGQ1N4wH_tI7Nl9-5" value="&lt;font style=&quot;font-size: 24px&quot;&gt;Submodule&lt;/font&gt;" style="shape=process;whiteSpace=wrap;html=1;backgroundOutline=1;fillColor=#d5e8d4;strokeColor=#82b366;labelBackgroundColor=none;" parent="_VHhroGQ1N4wH_tI7Nl9-6" vertex="1">
          <mxGeometry x="20" y="279.99536585365854" width="180" height="87.80487804878048" as="geometry" />
        </mxCell>
        <mxCell id="DJoWdvUPgjfss-XIfELl-2" value="&lt;font style=&quot;font-size: 24px&quot;&gt;Class Group&lt;/font&gt;" style="rounded=1;whiteSpace=wrap;html=1;fillColor=#f8cecc;strokeColor=#b85450;labelBackgroundColor=none;" parent="_VHhroGQ1N4wH_tI7Nl9-6" vertex="1">
          <mxGeometry x="237" y="50" width="196.25" height="87.8" as="geometry" />
        </mxCell>
        <mxCell id="DJoWdvUPgjfss-XIfELl-0" value="&lt;font style=&quot;font-size: 24px&quot;&gt;Topic Group&lt;/font&gt;" style="ellipse;whiteSpace=wrap;html=1;fillColor=#f8cecc;strokeColor=#b85450;labelBackgroundColor=none;" parent="_VHhroGQ1N4wH_tI7Nl9-6" vertex="1">
          <mxGeometry x="237" y="150" width="195" height="117.07" as="geometry" />
        </mxCell>
        <mxCell id="DCc7k3AozIeldM_8hQ48-3" value="" style="group" parent="_VHhroGQ1N4wH_tI7Nl9-6" vertex="1" connectable="0">
          <mxGeometry x="270" y="279.9926829268293" width="120" height="113.89731707317071" as="geometry" />
        </mxCell>
        <mxCell id="_VHhroGQ1N4wH_tI7Nl9-8" value="" style="endArrow=classic;html=1;rounded=0;labelBackgroundColor=none;" parent="DCc7k3AozIeldM_8hQ48-3" edge="1">
          <mxGeometry width="50" height="50" relative="1" as="geometry">
            <mxPoint x="23.75" y="73.17073170731703" as="sourcePoint" />
            <mxPoint x="98.75" as="targetPoint" />
          </mxGeometry>
        </mxCell>
        <mxCell id="28XbaLqMs1Jvm8NnYAq6-2" value="&lt;font style=&quot;font-size: 24px&quot;&gt;Data Flow&lt;/font&gt;" style="text;html=1;strokeColor=none;fillColor=none;align=center;verticalAlign=middle;whiteSpace=wrap;rounded=0;labelBackgroundColor=none;" parent="DCc7k3AozIeldM_8hQ48-3" vertex="1">
          <mxGeometry y="69.99731707317073" width="120" height="43.9" as="geometry" />
        </mxCell>
        <mxCell id="i1uspTg1YRudTD4QgDsY-7" value="SDX" style="shape=hexagon;perimeter=hexagonPerimeter2;whiteSpace=wrap;html=1;fixedSize=1;" parent="WIyWlLk6GJQsqaUBKTNV-1" vertex="1">
          <mxGeometry x="-1180" y="135" width="120" height="80" as="geometry" />
        </mxCell>
        <mxCell id="i1uspTg1YRudTD4QgDsY-11" style="edgeStyle=orthogonalEdgeStyle;rounded=0;orthogonalLoop=1;jettySize=auto;html=1;" parent="WIyWlLk6GJQsqaUBKTNV-1" source="i1uspTg1YRudTD4QgDsY-9" target="ew6DKZ_GkbG6XoCvcQPM-5" edge="1">
          <mxGeometry relative="1" as="geometry" />
        </mxCell>
        <mxCell id="i1uspTg1YRudTD4QgDsY-9" value="RsuDepositor.java" style="rounded=0;whiteSpace=wrap;html=1;fillColor=#dae8fc;strokeColor=#6c8ebf;" parent="WIyWlLk6GJQsqaUBKTNV-1" vertex="1">
          <mxGeometry x="-1022.5" y="50.5" width="120" height="60" as="geometry" />
        </mxCell>
        <mxCell id="YHMkREfT_XDUsx9dS2hV-0" style="edgeStyle=orthogonalEdgeStyle;rounded=0;orthogonalLoop=1;jettySize=auto;html=1;" parent="WIyWlLk6GJQsqaUBKTNV-1" source="JBgjJIfmi4-gixA-3QBI-0" target="gxxZRGfVhdAJ79STQYsQ-49" edge="1">
          <mxGeometry relative="1" as="geometry" />
        </mxCell>
        <mxCell id="JBgjJIfmi4-gixA-3QBI-0" value="offloaded files" style="shape=cube;whiteSpace=wrap;html=1;boundedLbl=1;backgroundOutline=1;darkOpacity=0.05;darkOpacity2=0.1;" parent="WIyWlLk6GJQsqaUBKTNV-1" vertex="1">
          <mxGeometry x="-575" y="-1080" width="120" height="80" as="geometry" />
        </mxCell>
        <mxCell id="JBgjJIfmi4-gixA-3QBI-22" style="edgeStyle=orthogonalEdgeStyle;rounded=0;orthogonalLoop=1;jettySize=auto;html=1;" parent="WIyWlLk6GJQsqaUBKTNV-1" source="JBgjJIfmi4-gixA-3QBI-4" target="gxxZRGfVhdAJ79STQYsQ-92" edge="1">
          <mxGeometry relative="1" as="geometry" />
        </mxCell>
        <mxCell id="JBgjJIfmi4-gixA-3QBI-24" style="edgeStyle=orthogonalEdgeStyle;rounded=0;orthogonalLoop=1;jettySize=auto;html=1;entryX=0;entryY=0.5;entryDx=0;entryDy=0;exitX=0.5;exitY=0;exitDx=0;exitDy=0;" parent="WIyWlLk6GJQsqaUBKTNV-1" source="JBgjJIfmi4-gixA-3QBI-4" target="gxxZRGfVhdAJ79STQYsQ-98" edge="1">
          <mxGeometry relative="1" as="geometry" />
        </mxCell>
        <mxCell id="JBgjJIfmi4-gixA-3QBI-4" value="Is message&lt;br&gt;double-encoded?" style="rhombus;whiteSpace=wrap;html=1;fillColor=#E5CCFF;" parent="WIyWlLk6GJQsqaUBKTNV-1" vertex="1">
          <mxGeometry x="-1180" y="-289.5" width="120" height="120.5" as="geometry" />
        </mxCell>
        <mxCell id="JBgjJIfmi4-gixA-3QBI-16" style="edgeStyle=orthogonalEdgeStyle;rounded=0;orthogonalLoop=1;jettySize=auto;html=1;exitX=0.5;exitY=1;exitDx=0;exitDy=0;" parent="WIyWlLk6GJQsqaUBKTNV-1" source="JBgjJIfmi4-gixA-3QBI-7" target="i1uspTg1YRudTD4QgDsY-9" edge="1">
          <mxGeometry relative="1" as="geometry" />
        </mxCell>
        <mxCell id="JBgjJIfmi4-gixA-3QBI-7" value="RSU Delivery?" style="rhombus;whiteSpace=wrap;html=1;fillColor=#E5CCFF;" parent="WIyWlLk6GJQsqaUBKTNV-1" vertex="1">
          <mxGeometry x="-1022.5" y="-115.25" width="120" height="120.5" as="geometry" />
        </mxCell>
        <mxCell id="JBgjJIfmi4-gixA-3QBI-12" value="yes" style="text;html=1;strokeColor=none;fillColor=none;align=center;verticalAlign=middle;whiteSpace=wrap;rounded=0;" parent="WIyWlLk6GJQsqaUBKTNV-1" vertex="1">
          <mxGeometry x="-977.5" y="5.25" width="60" height="30" as="geometry" />
        </mxCell>
        <mxCell id="JBgjJIfmi4-gixA-3QBI-23" value="yes" style="text;html=1;strokeColor=none;fillColor=none;align=center;verticalAlign=middle;whiteSpace=wrap;rounded=0;" parent="WIyWlLk6GJQsqaUBKTNV-1" vertex="1">
          <mxGeometry x="-1130" y="-169" width="60" height="30" as="geometry" />
        </mxCell>
        <mxCell id="JBgjJIfmi4-gixA-3QBI-25" value="no" style="text;html=1;strokeColor=none;fillColor=none;align=center;verticalAlign=middle;whiteSpace=wrap;rounded=0;" parent="WIyWlLk6GJQsqaUBKTNV-1" vertex="1">
          <mxGeometry x="-1130" y="-319.5" width="60" height="30" as="geometry" />
        </mxCell>
        <mxCell id="RfUBxi_CO7koLc6X4ijm-5" style="edgeStyle=orthogonalEdgeStyle;rounded=0;orthogonalLoop=1;jettySize=auto;html=1;" parent="WIyWlLk6GJQsqaUBKTNV-1" source="JBgjJIfmi4-gixA-3QBI-29" target="RfUBxi_CO7koLc6X4ijm-4" edge="1">
          <mxGeometry relative="1" as="geometry" />
        </mxCell>
        <mxCell id="Sz4bYn0nJbukoPfPf3sG-2" style="rounded=0;orthogonalLoop=1;jettySize=auto;html=1;" edge="1" parent="WIyWlLk6GJQsqaUBKTNV-1" source="JBgjJIfmi4-gixA-3QBI-29" target="JBgjJIfmi4-gixA-3QBI-7">
          <mxGeometry relative="1" as="geometry" />
        </mxCell>
        <mxCell id="Sz4bYn0nJbukoPfPf3sG-3" style="rounded=0;orthogonalLoop=1;jettySize=auto;html=1;" edge="1" parent="WIyWlLk6GJQsqaUBKTNV-1" source="JBgjJIfmi4-gixA-3QBI-29" target="Sz4bYn0nJbukoPfPf3sG-1">
          <mxGeometry relative="1" as="geometry" />
        </mxCell>
        <mxCell id="JBgjJIfmi4-gixA-3QBI-29" value="Is message&lt;br&gt;signed?" style="rhombus;whiteSpace=wrap;html=1;fillColor=#E5CCFF;" parent="WIyWlLk6GJQsqaUBKTNV-1" vertex="1">
          <mxGeometry x="-832.5" y="-123" width="120" height="120.5" as="geometry" />
        </mxCell>
        <mxCell id="JBgjJIfmi4-gixA-3QBI-38" value="yes" style="text;html=1;strokeColor=none;fillColor=none;align=center;verticalAlign=middle;whiteSpace=wrap;rounded=0;" parent="WIyWlLk6GJQsqaUBKTNV-1" vertex="1">
          <mxGeometry x="-857.5" y="-100" width="60" height="30" as="geometry" />
        </mxCell>
        <mxCell id="JBgjJIfmi4-gixA-3QBI-39" value="no" style="text;html=1;strokeColor=none;fillColor=none;align=center;verticalAlign=middle;whiteSpace=wrap;rounded=0;" parent="WIyWlLk6GJQsqaUBKTNV-1" vertex="1">
          <mxGeometry x="-790" y="-15" width="60" height="30" as="geometry" />
        </mxCell>
        <mxCell id="RfUBxi_CO7koLc6X4ijm-6" style="edgeStyle=orthogonalEdgeStyle;rounded=0;orthogonalLoop=1;jettySize=auto;html=1;entryX=1;entryY=0.5;entryDx=0;entryDy=0;exitX=1;exitY=0.5;exitDx=0;exitDy=0;" parent="WIyWlLk6GJQsqaUBKTNV-1" source="RfUBxi_CO7koLc6X4ijm-4" target="JBgjJIfmi4-gixA-3QBI-29" edge="1">
          <mxGeometry relative="1" as="geometry">
            <Array as="points">
              <mxPoint x="-650" y="73" />
              <mxPoint x="-650" y="-63" />
            </Array>
          </mxGeometry>
        </mxCell>
        <mxCell id="RfUBxi_CO7koLc6X4ijm-4" value="SignatureController.java" style="rounded=0;whiteSpace=wrap;html=1;fillColor=#dae8fc;strokeColor=#6c8ebf;" parent="WIyWlLk6GJQsqaUBKTNV-1" vertex="1">
          <mxGeometry x="-842.5" y="42.75" width="140" height="60" as="geometry" />
        </mxCell>
        <mxCell id="rKaXj94FR3fHoc4JMxDR-3" style="edgeStyle=none;rounded=0;orthogonalLoop=1;jettySize=auto;html=1;" parent="WIyWlLk6GJQsqaUBKTNV-1" source="rKaXj94FR3fHoc4JMxDR-0" target="rKaXj94FR3fHoc4JMxDR-2" edge="1">
          <mxGeometry relative="1" as="geometry" />
        </mxCell>
        <mxCell id="rKaXj94FR3fHoc4JMxDR-0" value="GeoJSON Converter" style="shape=process;whiteSpace=wrap;html=1;backgroundOutline=1;fillColor=#d5e8d4;strokeColor=#82b366;" parent="WIyWlLk6GJQsqaUBKTNV-1" vertex="1">
          <mxGeometry x="-575" y="-82.25" width="120" height="60" as="geometry" />
        </mxCell>
        <mxCell id="rKaXj94FR3fHoc4JMxDR-8" style="edgeStyle=none;rounded=0;orthogonalLoop=1;jettySize=auto;html=1;" parent="WIyWlLk6GJQsqaUBKTNV-1" source="rKaXj94FR3fHoc4JMxDR-2" target="rKaXj94FR3fHoc4JMxDR-4" edge="1">
          <mxGeometry relative="1" as="geometry" />
        </mxCell>
        <mxCell id="rKaXj94FR3fHoc4JMxDR-2" value="Processed Map/Spat" style="ellipse;whiteSpace=wrap;html=1;fillColor=#f8cecc;strokeColor=#b85450;" parent="WIyWlLk6GJQsqaUBKTNV-1" vertex="1">
          <mxGeometry x="-575" y="17.75" width="120" height="80" as="geometry" />
        </mxCell>
        <mxCell id="rKaXj94FR3fHoc4JMxDR-7" style="edgeStyle=none;rounded=0;orthogonalLoop=1;jettySize=auto;html=1;" parent="WIyWlLk6GJQsqaUBKTNV-1" source="rKaXj94FR3fHoc4JMxDR-4" target="rKaXj94FR3fHoc4JMxDR-6" edge="1">
          <mxGeometry relative="1" as="geometry" />
        </mxCell>
        <mxCell id="rKaXj94FR3fHoc4JMxDR-4" value="Conflict Monitor" style="shape=process;whiteSpace=wrap;html=1;backgroundOutline=1;fillColor=#d5e8d4;strokeColor=#82b366;" parent="WIyWlLk6GJQsqaUBKTNV-1" vertex="1">
          <mxGeometry x="-575" y="130" width="120" height="60" as="geometry" />
        </mxCell>
        <mxCell id="rKaXj94FR3fHoc4JMxDR-6" value="CM Output Topics" style="ellipse;whiteSpace=wrap;html=1;fillColor=#f8cecc;strokeColor=#b85450;" parent="WIyWlLk6GJQsqaUBKTNV-1" vertex="1">
          <mxGeometry x="-410" y="120" width="120" height="80" as="geometry" />
        </mxCell>
        <mxCell id="DCc7k3AozIeldM_8hQ48-1" style="rounded=0;orthogonalLoop=1;jettySize=auto;html=1;" parent="WIyWlLk6GJQsqaUBKTNV-1" source="DCc7k3AozIeldM_8hQ48-0" target="JBgjJIfmi4-gixA-3QBI-0" edge="1">
          <mxGeometry relative="1" as="geometry" />
        </mxCell>
        <mxCell id="DCc7k3AozIeldM_8hQ48-6" style="edgeStyle=none;rounded=0;orthogonalLoop=1;jettySize=auto;html=1;" parent="WIyWlLk6GJQsqaUBKTNV-1" source="DCc7k3AozIeldM_8hQ48-0" target="gxxZRGfVhdAJ79STQYsQ-58" edge="1">
          <mxGeometry relative="1" as="geometry" />
        </mxCell>
        <mxCell id="DCc7k3AozIeldM_8hQ48-7" style="edgeStyle=none;rounded=0;orthogonalLoop=1;jettySize=auto;html=1;" parent="WIyWlLk6GJQsqaUBKTNV-1" source="DCc7k3AozIeldM_8hQ48-0" target="gxxZRGfVhdAJ79STQYsQ-74" edge="1">
          <mxGeometry relative="1" as="geometry" />
        </mxCell>
        <mxCell id="DCc7k3AozIeldM_8hQ48-0" value="" style="ellipse;shape=cloud;whiteSpace=wrap;html=1;" parent="WIyWlLk6GJQsqaUBKTNV-1" vertex="1">
          <mxGeometry x="-882.5" y="-1070" width="220" height="140" as="geometry" />
        </mxCell>
        <mxCell id="0j6iyoVwDkoRMPwD6O5d-2" style="edgeStyle=orthogonalEdgeStyle;rounded=0;orthogonalLoop=1;jettySize=auto;html=1;exitX=0;exitY=0.5;exitDx=0;exitDy=0;entryX=0.583;entryY=0.003;entryDx=0;entryDy=0;entryPerimeter=0;" parent="WIyWlLk6GJQsqaUBKTNV-1" source="DCc7k3AozIeldM_8hQ48-4" target="gxxZRGfVhdAJ79STQYsQ-60" edge="1">
          <mxGeometry relative="1" as="geometry">
            <mxPoint x="-420" y="-820.0000000000001" as="targetPoint" />
          </mxGeometry>
        </mxCell>
        <mxCell id="DCc7k3AozIeldM_8hQ48-4" value="LogFileToAsn1CodecPublisher,java" style="rounded=0;whiteSpace=wrap;html=1;fillColor=#dae8fc;strokeColor=#6c8ebf;" parent="WIyWlLk6GJQsqaUBKTNV-1" vertex="1">
          <mxGeometry x="-385" y="-930" width="210" height="60" as="geometry" />
        </mxCell>
        <mxCell id="DCc7k3AozIeldM_8hQ48-9" value="path #1" style="text;html=1;strokeColor=none;fillColor=none;align=center;verticalAlign=middle;whiteSpace=wrap;rounded=0;" parent="WIyWlLk6GJQsqaUBKTNV-1" vertex="1">
          <mxGeometry x="-772.5" y="-840" width="60" height="30" as="geometry" />
        </mxCell>
        <mxCell id="DCc7k3AozIeldM_8hQ48-10" value="path #2" style="text;html=1;strokeColor=none;fillColor=none;align=center;verticalAlign=middle;whiteSpace=wrap;rounded=0;" parent="WIyWlLk6GJQsqaUBKTNV-1" vertex="1">
          <mxGeometry x="-600" y="-860" width="60" height="30" as="geometry" />
        </mxCell>
        <mxCell id="DCc7k3AozIeldM_8hQ48-11" value="path #3" style="text;html=1;strokeColor=none;fillColor=none;align=center;verticalAlign=middle;whiteSpace=wrap;rounded=0;" parent="WIyWlLk6GJQsqaUBKTNV-1" vertex="1">
          <mxGeometry x="-540" y="-995" width="60" height="30" as="geometry" />
        </mxCell>
        <mxCell id="Sz4bYn0nJbukoPfPf3sG-4" style="edgeStyle=orthogonalEdgeStyle;rounded=0;orthogonalLoop=1;jettySize=auto;html=1;" edge="1" parent="WIyWlLk6GJQsqaUBKTNV-1" source="Sz4bYn0nJbukoPfPf3sG-1" target="JBgjJIfmi4-gixA-3QBI-4">
          <mxGeometry relative="1" as="geometry" />
        </mxCell>
        <mxCell id="Sz4bYn0nJbukoPfPf3sG-1" value="SDX Delivery?" style="rhombus;whiteSpace=wrap;html=1;fillColor=#E5CCFF;" vertex="1" parent="WIyWlLk6GJQsqaUBKTNV-1">
          <mxGeometry x="-1022.5" y="-289.5" width="120" height="120.5" as="geometry" />
        </mxCell>
      </root>
    </mxGraphModel>
  </diagram>
</mxfile>
